<svg width="61" height="60" viewBox="0 0 61 60" fill="none" xmlns="http://www.w3.org/2000/svg">
<path d="M28.6914 18.7559C28.6914 18.2338 28.5504 17.7388 28.2975 17.3599C28.0472 16.9849 27.6465 16.6738 27.1367 16.6738C26.627 16.6738 26.2263 16.9849 25.976 17.3599C25.723 17.7388 25.582 18.2338 25.582 18.7559C25.582 19.2779 25.723 19.7729 25.976 20.1519C26.2263 20.5268 26.627 20.8379 27.1367 20.8379C27.6465 20.8379 28.0472 20.5268 28.2975 20.1519C28.5504 19.7729 28.6914 19.2779 28.6914 18.7559Z" fill="#131313" stroke="#131313"/>
<path d="M40.0646 58.2863L40.0647 58.2862C39.5193 58.0353 39.2828 57.386 39.5323 56.8437L39.5323 56.8437C39.5349 56.8379 39.5385 56.8301 39.5429 56.8204C39.8129 56.2252 43.4034 48.3111 46.5256 37.5839C46.5691 37.432 46.6113 37.2881 46.6531 37.1458C46.7062 36.9651 46.7585 36.7868 46.8118 36.5972L46.8122 36.5954C48.4625 30.7966 47.08 26.7955 45.0358 22.0372C44.9069 21.7441 44.7772 21.4435 44.6529 21.1418L44.6494 21.1338C43.5866 18.6811 42.468 16.0998 41.8127 13.1331L41.8127 13.1331C41.0645 9.74531 41.048 6.34218 41.7456 2.72932L41.7465 2.72429L41.7466 2.7243C41.8637 2.14945 42.4229 1.74926 43.0219 1.87127C43.5959 1.98821 43.9958 2.54601 43.8754 3.14403C42.4366 10.5527 44.5457 15.4447 46.6445 20.2854L46.6448 20.2862C46.7739 20.5853 46.9021 20.8825 47.0301 21.1735L47.032 21.1777C49.1182 26.0397 50.7521 30.686 48.9053 37.1901M40.0646 58.2863L48.424 37.0546M40.0646 58.2863L40.0767 58.2915C40.2154 58.3509 40.3642 58.3846 40.5197 58.3846C40.9159 58.3846 41.317 58.1624 41.505 57.7642L41.505 57.7641M40.0646 58.2863L40.2736 57.8319M48.9053 37.1901C48.9052 37.1904 48.9051 37.1908 48.905 37.1912L48.424 37.0546M48.9053 37.1901C48.9053 37.1899 48.9054 37.1898 48.9054 37.1897L48.424 37.0546M48.9053 37.1901C48.858 37.3587 48.8092 37.527 48.7612 37.6931L48.7607 37.6946C48.7123 37.8619 48.6645 38.0269 48.6183 38.1917L48.617 38.1964C45.3875 49.2797 41.6663 57.4217 41.505 57.7641M48.424 37.0546C48.3771 37.2216 48.3288 37.3886 48.2805 37.5555C48.2321 37.7225 48.1838 37.8895 48.1369 38.0565C44.8674 49.2772 41.0939 57.4686 41.0529 57.5507M41.505 57.7641L41.0529 57.5507M41.505 57.7641C41.5026 57.7693 41.5009 57.7727 41.5001 57.7743L41.0529 57.5507M41.0529 57.5507C40.9533 57.7616 40.7365 57.8846 40.5197 57.8846C40.4377 57.8846 40.3557 57.8671 40.2736 57.8319M40.2736 57.8319C39.9807 57.6971 39.8517 57.3456 39.9865 57.0526C39.9877 57.0499 39.9928 57.0387 40.0017 57.019C40.266 56.4366 43.8718 48.4913 47.006 37.7225C47.0469 37.5795 47.0889 37.4364 47.131 37.2929C47.1855 37.1072 47.2403 36.9207 47.2932 36.7323C48.9924 30.7616 47.551 26.6249 45.4943 21.8378L40.2736 57.8319ZM14.2743 20.2903L14.2742 20.2907L12.7106 37.1913C16.0383 48.8993 20.0233 57.5702 20.1086 57.7542C20.2944 58.1577 20.689 58.3846 21.0959 58.3846C21.2382 58.3846 21.4021 58.3561 21.5519 58.283C22.0924 58.0298 22.3259 57.3837 22.0775 56.8437L22.0763 56.8412L22.0754 56.8391L22.0726 56.833L22.0626 56.8113L22.026 56.731C21.9944 56.6614 21.9486 56.56 21.8897 56.4279C21.7719 56.1638 21.6019 55.7776 21.3885 55.2799C20.9618 54.2844 20.3617 52.8433 19.6597 51.0417C18.2555 47.4382 16.4446 42.3954 14.7976 36.5957L14.7975 36.5956C12.9874 30.2286 14.5779 25.8283 16.316 21.0295L16.3161 21.0291L16.3378 20.9693C17.2146 18.5422 18.1387 15.9841 18.6528 13.0531L18.6529 13.0524C19.2382 9.69007 19.1834 6.31274 18.4875 2.73059C18.3773 2.14336 17.8046 1.75284 17.2153 1.87039C16.6285 1.98154 16.2388 2.5547 16.3574 3.14406C17.7998 10.5652 16.0273 15.4578 14.2743 20.2903Z" fill="#131313" stroke="#131313"/>
<path d="M30.3183 39.9024L30.8027 40.0263C30.8674 39.7734 30.9247 39.5499 30.9817 39.3448L30.982 39.3437C31.7545 36.5383 32.677 34.6063 33.683 33.5237C34.1022 33.0798 34.0579 32.3963 33.6334 31.993C33.1896 31.5714 32.5043 31.6152 32.1003 32.0404L32.098 32.0429C30.7905 33.438 29.7266 35.7228 28.8871 38.7614L28.8864 38.7641C28.8794 38.7901 28.8722 38.8165 28.865 38.8433C28.8126 39.0366 28.7546 39.2508 28.6966 39.4878C28.5473 40.072 28.8974 40.6577 29.478 40.8082L29.4865 40.8104L29.495 40.8123C29.5756 40.8302 29.6594 40.8418 29.7499 40.8418C30.2363 40.8418 30.6817 40.5105 30.8034 40.0236L30.3183 39.9024ZM30.3183 39.9024C30.2539 40.1602 30.0136 40.3418 29.7499 40.3418C29.7031 40.3418 29.6562 40.336 29.6035 40.3242L30.4999 39.211C30.4414 39.4219 30.3828 39.6504 30.3183 39.9024ZM13.4433 25.5843L13.4433 25.5843L13.4463 25.5858C16.4196 27.1382 19.2467 27.916 22.039 27.916C22.6394 27.916 23.2323 27.8796 23.8233 27.8133L23.8233 27.8133L23.8268 27.8129C26.776 27.4607 29.4198 26.2711 31.8971 25.1565L31.9824 25.1181L31.9831 25.1178C36.0425 23.2844 40.1084 21.462 45.8045 22.6665C46.3904 22.7951 46.974 22.4187 47.0964 21.831C47.2243 21.2447 46.8469 20.661 46.2582 20.5398C39.8544 19.1827 35.35 21.2138 31.1196 23.1213L31.0913 23.1341L31.0912 23.1341C28.5869 24.2642 26.2326 25.3219 23.5983 25.6409C20.9866 25.957 18.066 25.5483 14.4553 23.6629C13.9199 23.38 13.2689 23.5914 12.9899 24.1172C12.7057 24.6529 12.917 25.305 13.4433 25.5843Z" fill="#131313" stroke="#131313"/>
<path d="M27.7137 57.3302L27.7137 57.3303H27.7228H27.7345C28.3145 57.3303 28.8074 56.8696 28.8203 56.2746C28.8205 56.2655 28.8209 56.2523 28.8214 56.2354C28.8433 55.4651 29.0906 46.7573 30.8027 40.0386C30.9538 39.4535 30.6036 38.8662 30.0221 38.7154C29.4365 38.5636 28.8486 38.9139 28.6977 39.4958L28.6977 39.4958L28.6973 39.4975C26.9063 46.5078 26.6721 55.2549 26.6487 56.2205H26.6487L26.6486 56.2235C26.6378 56.8195 27.1129 57.3193 27.7137 57.3302ZM27.7228 56.8303C27.4005 56.8244 27.1427 56.5549 27.1485 56.2326L28.3204 56.2619C28.3146 56.5783 28.0509 56.8303 27.7345 56.8303H27.7228Z" fill="#131313" stroke="#131313"/>
<path d="M28.436 56.2792L28.3153 56.7791L27.7344 56.7733H27.7319H27.1484H26.6484V56.2733V56.2206V56.2099L26.6489 56.1993C26.6898 55.2413 27.0813 46.5887 28.6758 39.5822V39.5623L28.6894 39.5052C28.7112 39.4135 28.7326 39.3227 28.7536 39.2333C28.7879 39.0878 28.8212 38.9462 28.854 38.8114L28.8548 38.8083L28.8548 38.8083C28.9066 38.6012 29.0124 38.419 29.1673 38.2719L29.1855 38.2537L29.1943 38.245L29.2035 38.2366C33.2838 34.5424 37.3217 32.7924 41.1869 33.1999L28.436 56.2792ZM28.436 56.2792L28.8081 56.2964C28.8083 56.2903 28.8087 56.2822 28.8092 56.2721C28.8382 55.6327 29.2353 46.8699 30.7877 40.0534C30.7881 40.052 30.7886 40.0507 30.789 40.0493C30.794 40.0345 30.8054 39.9996 30.8125 39.9521C30.8338 39.8474 30.8562 39.7542 30.8797 39.6559C30.8798 39.6556 30.8799 39.6552 30.88 39.6548C34.5056 36.4348 37.8874 35.0446 40.9427 35.3605L40.9431 35.3605C42.769 35.5478 44.2 36.3305 45.1839 37.0796C46.1381 37.806 46.6546 38.4881 46.6801 38.5217C46.681 38.5229 46.6813 38.5233 46.681 38.5229L46.6809 38.523L46.6879 38.5323C47.0425 39.0052 47.7113 39.1147 48.198 38.7687L48.1981 38.7688L48.2082 38.7612C48.6811 38.4065 48.7906 37.7377 48.4446 37.2511L48.4447 37.2511L48.4392 37.2437L48.4384 37.2426C48.3105 37.0695 45.8093 33.6849 41.1872 33.1999L28.436 56.2792Z" fill="#131313" stroke="#131313"/>
<path d="M28.2897 40.8941L28.2912 40.8964C28.4967 41.2209 28.8517 41.4043 29.2117 41.4043C29.4041 41.4043 29.6073 41.3522 29.7848 41.2419C30.3003 40.9238 30.4469 40.2504 30.1352 39.7453L30.1352 39.7452L30.1332 39.7419C27.8144 36.049 24.1198 34.2265 19.5121 34.4636C16.1415 34.6314 13.4726 35.8305 13.3031 35.9101C12.7594 36.1617 12.5239 36.81 12.773 37.3515C13.0239 37.8969 13.6732 38.1334 14.2155 37.8839L14.2229 37.8805L14.2302 37.8769C14.2297 37.8771 14.2312 37.8765 14.2346 37.875C14.3518 37.8235 16.7204 36.7833 19.6221 36.6341L19.6224 36.6341C23.5072 36.4317 26.3969 37.8688 28.2897 40.8941ZM24.9968 18.7559C24.9968 20.1062 25.8206 21.4238 27.1374 21.4238C28.4542 21.4238 29.2781 20.1062 29.2781 18.7559C29.2781 17.4055 28.4542 16.0879 27.1374 16.0879C25.8214 16.0879 24.9968 17.3987 24.9968 18.7559Z" fill="#131313" stroke="#131313"/>
<path d="M49.9053 12.5134L49.9053 12.5135L49.9086 12.5176C50.1238 12.7866 50.4393 12.9279 50.7619 12.9279C50.9957 12.9279 51.2341 12.8535 51.4321 12.6995L51.4321 12.6995L51.4353 12.697C51.8989 12.3304 51.991 11.6484 51.6178 11.1754C51.6175 11.175 51.6172 11.1747 51.617 11.1744L49.9121 8.99931L51.6519 6.48615C52.0013 5.99137 51.8675 5.31181 51.3826 4.97527C50.887 4.62538 50.2061 4.76018 49.8701 5.24704C49.87 5.24727 49.8698 5.2475 49.8697 5.24773L47.6735 8.41611C47.6734 8.41618 47.6734 8.41625 47.6733 8.41632C47.6733 8.41637 47.6733 8.41642 47.6732 8.41647C47.4032 8.80567 47.414 9.32571 47.7058 9.70397L47.7058 9.70398L47.708 9.70679L49.9053 12.5134Z" fill="#131313" stroke="#131313"/>
<path d="M7.98363 12.6969L7.9903 12.7022L7.99714 12.7072C8.18991 12.8493 8.41594 12.9277 8.65702 12.9277C8.9796 12.9277 9.29513 12.7865 9.51035 12.5174L9.51037 12.5175L9.51362 12.5133L11.7109 9.70667L11.7109 9.70668L11.7131 9.70385C12.0049 9.32558 12.0157 8.80554 11.7457 8.41634C11.7456 8.41622 11.7455 8.41611 11.7454 8.41599L9.54925 5.24761C9.54909 5.24738 9.54893 5.24715 9.54877 5.24692C9.20722 4.75194 8.52572 4.638 8.03939 4.97303C7.54382 5.31442 7.42962 5.99633 7.7648 6.48289L7.7648 6.48289L7.76546 6.48384L9.50686 8.99919L7.80193 11.1743C7.80167 11.1746 7.80141 11.1749 7.80115 11.1753C7.42796 11.6483 7.51997 12.3303 7.98363 12.6969Z" fill="#131313" stroke="#131313"/>
</svg>
