<svg width="61" height="60" viewBox="0 0 61 60" fill="none" xmlns="http://www.w3.org/2000/svg">
<mask id="path-1-inside-1_202_1854" fill="white">
<path d="M30.4933 3.56445C23.3936 3.56445 16.715 6.33383 11.6933 11.3574C6.6718 16.379 3.9043 23.0556 3.9043 30.1572C3.9043 37.2608 6.67186 43.9374 11.6933 48.9591C16.715 53.9828 23.3936 56.7501 30.4933 56.7501C37.6007 56.7501 44.2772 53.9828 49.2991 48.9591C54.3245 43.9375 57.0901 37.2608 57.0901 30.1572C57.0901 23.0556 54.3246 16.3791 49.2991 11.3574C44.2773 6.33383 37.6009 3.56445 30.4933 3.56445ZM46.9487 46.6089C42.5577 51.0037 36.7095 53.4245 30.4933 53.4245C24.2808 53.4245 18.4404 51.0037 14.0417 46.6089C9.64672 42.2139 7.22609 36.3736 7.22609 30.1573C7.22609 23.941 9.64678 18.1006 14.0417 13.7057C18.4405 9.31074 24.2809 6.89006 30.4933 6.89006C36.7095 6.89006 42.5578 9.3108 46.9487 13.7057C51.3437 18.1006 53.7645 23.9408 53.7645 30.1573C53.7645 36.3737 51.3437 42.2139 46.9487 46.6089ZM42.7849 33.616L32.158 29.0625V11.8764C32.158 10.9598 31.4138 10.2117 30.4933 10.2117C29.5766 10.2117 28.8343 10.9598 28.8343 11.8764V30.1573C28.8343 30.8213 29.23 31.4264 29.8429 31.6849L41.4765 36.6714C41.6899 36.7615 41.9113 36.8066 42.1286 36.8066C42.773 36.8066 43.392 36.4266 43.6583 35.7999C44.0186 34.9538 43.6288 33.9805 42.7848 33.6161M13.8752 28.4964H12.2144C11.2978 28.4964 10.5516 29.2406 10.5516 30.1572C10.5516 31.0739 11.2978 31.8181 12.2144 31.8181H13.8752C14.7918 31.8181 15.54 31.0738 15.54 30.1572C15.54 29.2406 14.7918 28.4964 13.8752 28.4964ZM45.4524 30.1572C45.4524 31.0739 46.2006 31.82 47.1171 31.82H48.778C49.6965 31.82 50.4388 31.0738 50.4388 30.1572C50.4388 29.2406 49.6965 28.4945 48.778 28.4945H47.1171C46.2005 28.4945 45.4524 29.2405 45.4524 30.1572ZM30.4933 45.1165C29.5766 45.1165 28.8343 45.8606 28.8343 46.7773V48.4419C28.8343 49.3547 29.5766 50.1009 30.4933 50.1009C31.4137 50.1009 32.158 49.3547 32.158 48.4419V46.7773C32.158 45.8606 31.4138 45.1165 30.4933 45.1165Z"/>
</mask>
<path d="M30.4933 3.56445C23.3936 3.56445 16.715 6.33383 11.6933 11.3574C6.6718 16.379 3.9043 23.0556 3.9043 30.1572C3.9043 37.2608 6.67186 43.9374 11.6933 48.9591C16.715 53.9828 23.3936 56.7501 30.4933 56.7501C37.6007 56.7501 44.2772 53.9828 49.2991 48.9591C54.3245 43.9375 57.0901 37.2608 57.0901 30.1572C57.0901 23.0556 54.3246 16.3791 49.2991 11.3574C44.2773 6.33383 37.6009 3.56445 30.4933 3.56445ZM46.9487 46.6089C42.5577 51.0037 36.7095 53.4245 30.4933 53.4245C24.2808 53.4245 18.4404 51.0037 14.0417 46.6089C9.64672 42.2139 7.22609 36.3736 7.22609 30.1573C7.22609 23.941 9.64678 18.1006 14.0417 13.7057C18.4405 9.31074 24.2809 6.89006 30.4933 6.89006C36.7095 6.89006 42.5578 9.3108 46.9487 13.7057C51.3437 18.1006 53.7645 23.9408 53.7645 30.1573C53.7645 36.3737 51.3437 42.2139 46.9487 46.6089ZM42.7849 33.616L32.158 29.0625V11.8764C32.158 10.9598 31.4138 10.2117 30.4933 10.2117C29.5766 10.2117 28.8343 10.9598 28.8343 11.8764V30.1573C28.8343 30.8213 29.23 31.4264 29.8429 31.6849L41.4765 36.6714C41.6899 36.7615 41.9113 36.8066 42.1286 36.8066C42.773 36.8066 43.392 36.4266 43.6583 35.7999C44.0186 34.9538 43.6288 33.9805 42.7848 33.6161M13.8752 28.4964H12.2144C11.2978 28.4964 10.5516 29.2406 10.5516 30.1572C10.5516 31.0739 11.2978 31.8181 12.2144 31.8181H13.8752C14.7918 31.8181 15.54 31.0738 15.54 30.1572C15.54 29.2406 14.7918 28.4964 13.8752 28.4964ZM45.4524 30.1572C45.4524 31.0739 46.2006 31.82 47.1171 31.82H48.778C49.6965 31.82 50.4388 31.0738 50.4388 30.1572C50.4388 29.2406 49.6965 28.4945 48.778 28.4945H47.1171C46.2005 28.4945 45.4524 29.2405 45.4524 30.1572ZM30.4933 45.1165C29.5766 45.1165 28.8343 45.8606 28.8343 46.7773V48.4419C28.8343 49.3547 29.5766 50.1009 30.4933 50.1009C31.4137 50.1009 32.158 49.3547 32.158 48.4419V46.7773C32.158 45.8606 31.4138 45.1165 30.4933 45.1165Z" fill="#131313"/>
<path d="M11.6933 11.3574L12.4005 12.0645L12.4006 12.0643L11.6933 11.3574ZM11.6933 48.9591L12.4006 48.2521L12.4005 48.252L11.6933 48.9591ZM49.2991 48.9591L48.5923 48.2517L48.5919 48.2521L49.2991 48.9591ZM49.2991 11.3574L48.5919 12.0643L48.5923 12.0647L49.2991 11.3574ZM46.9487 46.6089L46.2416 45.9018L46.2413 45.9021L46.9487 46.6089ZM14.0417 46.6089L13.3346 47.316L13.3349 47.3163L14.0417 46.6089ZM14.0417 13.7057L13.3349 12.9983L13.3346 12.9986L14.0417 13.7057ZM46.9487 13.7057L46.2413 14.4125L46.2416 14.4129L46.9487 13.7057ZM32.158 29.0625H31.158V29.7219L31.7641 29.9816L32.158 29.0625ZM29.8429 31.6849L30.2369 30.7657L30.2315 30.7635L29.8429 31.6849ZM41.4765 36.6714L41.0825 37.5906L41.0878 37.5928L41.4765 36.6714ZM43.6583 35.7999L42.7383 35.4082L42.738 35.4088L43.6583 35.7999ZM30.4933 2.56445C23.128 2.56445 16.1951 5.43944 10.9861 10.6504L12.4006 12.0643C17.2349 7.22822 23.6591 4.56445 30.4933 4.56445V2.56445ZM10.9862 10.6503C5.77729 15.8593 2.9043 22.7902 2.9043 30.1572H4.9043C4.9043 23.321 7.56631 16.8987 12.4005 12.0645L10.9862 10.6503ZM2.9043 30.1572C2.9043 37.5262 5.77732 44.457 10.9862 49.6662L12.4005 48.252C7.56639 43.4177 4.9043 36.9954 4.9043 30.1572H2.9043ZM10.9861 49.666C16.1952 54.8773 23.1282 57.7501 30.4933 57.7501V55.7501C23.6589 55.7501 17.2348 53.0883 12.4006 48.2521L10.9861 49.666ZM30.4933 57.7501C37.866 57.7501 44.7969 54.8774 50.0063 49.6661L48.5919 48.2521C43.7575 53.0882 37.3354 55.7501 30.4933 55.7501V57.7501ZM50.0059 49.6665C55.2192 44.4573 58.0901 37.5261 58.0901 30.1572H56.0901C56.0901 36.9956 53.4299 43.4178 48.5923 48.2517L50.0059 49.6665ZM58.0901 30.1572C58.0901 22.7904 55.2192 15.8593 50.0059 10.65L48.5923 12.0647C53.43 16.8988 56.0901 23.3209 56.0901 30.1572H58.0901ZM50.0063 10.6504C44.7972 5.43939 37.8664 2.56445 30.4933 2.56445V4.56445C37.3354 4.56445 43.7575 7.22827 48.5919 12.0643L50.0063 10.6504ZM46.2413 45.9021C42.0381 50.1089 36.4446 52.4245 30.4933 52.4245V54.4245C36.9745 54.4245 43.0772 51.8985 47.6561 47.3157L46.2413 45.9021ZM30.4933 52.4245C24.5463 52.4245 18.96 50.1092 14.7484 45.9015L13.3349 47.3163C17.9208 51.8981 24.0153 54.4245 30.4933 54.4245V52.4245ZM14.7488 45.9018C10.5413 41.6943 8.22609 36.1083 8.22609 30.1573H6.22609C6.22609 36.639 8.75218 42.7336 13.3346 47.316L14.7488 45.9018ZM8.22609 30.1573C8.22609 24.2063 10.5413 18.6203 14.7488 14.4129L13.3346 12.9986C8.75224 17.5809 6.22609 23.6756 6.22609 30.1573H8.22609ZM14.7485 14.4132C18.9601 10.2052 24.5464 7.89006 30.4933 7.89006V5.89006C24.0153 5.89006 17.9209 8.41631 13.3349 12.9983L14.7485 14.4132ZM30.4933 7.89006C36.4446 7.89006 42.0382 10.2056 46.2413 14.4125L47.6562 12.999C43.0773 8.41597 36.9745 5.89006 30.4933 5.89006V7.89006ZM46.2416 14.4129C50.4492 18.6203 52.7645 24.2062 52.7645 30.1573H54.7645C54.7645 23.6755 52.2383 17.5809 47.6558 12.9986L46.2416 14.4129ZM52.7645 30.1573C52.7645 36.1083 50.4492 41.6943 46.2416 45.9018L47.6558 47.316C52.2382 42.7336 54.7645 36.6391 54.7645 30.1573H52.7645ZM43.1787 32.6968L32.5518 28.1433L31.7641 29.9816L42.391 34.5352L43.1787 32.6968ZM33.158 29.0625V11.8764H31.158V29.0625H33.158ZM33.158 11.8764C33.158 10.4091 31.9676 9.21168 30.4933 9.21168V11.2117C30.8599 11.2117 31.158 11.5105 31.158 11.8764H33.158ZM30.4933 9.21168C29.0198 9.21168 27.8343 10.4121 27.8343 11.8764H29.8343C29.8343 11.5075 30.1334 11.2117 30.4933 11.2117V9.21168ZM27.8343 11.8764V30.1573H29.8343V11.8764H27.8343ZM27.8343 30.1573C27.8343 31.2178 28.4656 32.1894 29.4544 32.6063L30.2315 30.7635C29.9943 30.6635 29.8343 30.4249 29.8343 30.1573H27.8343ZM29.449 32.604L41.0825 37.5906L41.8705 35.7523L30.2369 30.7658L29.449 32.604ZM41.0878 37.5928C41.4194 37.7327 41.7726 37.8066 42.1286 37.8066V35.8066C42.0499 35.8066 41.9605 35.7903 41.8652 35.7501L41.0878 37.5928ZM42.1286 37.8066C43.1558 37.8066 44.1483 37.2035 44.5787 36.1911L42.738 35.4088C42.6356 35.6497 42.3903 35.8066 42.1286 35.8066V37.8066ZM44.5784 36.1916C45.1544 34.8387 44.5299 33.2803 43.1811 32.698L42.3884 34.5342C42.7276 34.6807 42.8827 35.0689 42.7383 35.4082L44.5784 36.1916ZM13.8752 27.4964H12.2144V29.4964H13.8752V27.4964ZM12.2144 27.4964C10.747 27.4964 9.55158 28.6868 9.55158 30.1572H11.5516C11.5516 29.7944 11.8485 29.4964 12.2144 29.4964V27.4964ZM9.55158 30.1572C9.55158 31.6277 10.747 32.8181 12.2144 32.8181V30.8181C11.8485 30.8181 11.5516 30.52 11.5516 30.1572H9.55158ZM12.2144 32.8181H13.8752V30.8181H12.2144V32.8181ZM13.8752 32.8181C15.341 32.8181 16.54 31.6292 16.54 30.1572H14.54C14.54 30.5185 14.2426 30.8181 13.8752 30.8181V32.8181ZM16.54 30.1572C16.54 28.6853 15.341 27.4964 13.8752 27.4964V29.4964C14.2426 29.4964 14.54 29.796 14.54 30.1572H16.54ZM44.4524 30.1572C44.4524 31.6277 45.6498 32.82 47.1171 32.82V30.82C46.7513 30.82 46.4524 30.52 46.4524 30.1572H44.4524ZM47.1171 32.82H48.778V30.82H47.1171V32.82ZM48.778 32.82C50.2511 32.82 51.4388 31.6238 51.4388 30.1572H49.4388C49.4388 30.5238 49.142 30.82 48.778 30.82V32.82ZM51.4388 30.1572C51.4388 28.6907 50.2511 27.4945 48.778 27.4945V29.4945C49.142 29.4945 49.4388 29.7906 49.4388 30.1572H51.4388ZM48.778 27.4945H47.1171V29.4945H48.778V27.4945ZM47.1171 27.4945C45.6497 27.4945 44.4524 28.6867 44.4524 30.1572H46.4524C46.4524 29.7943 46.7512 29.4945 47.1171 29.4945V27.4945ZM30.4933 44.1165C29.0229 44.1165 27.8343 45.3098 27.8343 46.7773H29.8343C29.8343 46.4114 30.1304 46.1165 30.4933 46.1165V44.1165ZM27.8343 46.7773V48.4419H29.8343V46.7773H27.8343ZM27.8343 48.4419C27.8343 49.9055 29.0228 51.1009 30.4933 51.1009V49.1009C30.1304 49.1009 29.8343 48.8039 29.8343 48.4419H27.8343ZM30.4933 51.1009C31.9645 51.1009 33.158 49.9085 33.158 48.4419H31.158C31.158 48.8009 30.8629 49.1009 30.4933 49.1009V51.1009ZM33.158 48.4419V46.7773H31.158V48.4419H33.158ZM33.158 46.7773C33.158 45.3068 31.9645 44.1165 30.4933 44.1165V46.1165C30.863 46.1165 31.158 46.4144 31.158 46.7773H33.158Z" fill="#131313" mask="url(#path-1-inside-1_202_1854)"/>
</svg>
