<svg width="24" height="24" viewBox="0 0 24 24" fill="none" xmlns="http://www.w3.org/2000/svg">
<g clip-path="url(#clip0_640_735)">
<path d="M23.5024 7.19659C23.4894 6.212 23.3071 5.2372 22.9637 4.31579C22.6659 3.53859 22.211 2.83275 21.628 2.24337C21.0451 1.65399 20.3471 1.19404 19.5784 0.892891C18.6788 0.551455 17.7285 0.366834 16.7678 0.346891C15.531 0.290991 15.1388 0.275391 11.9991 0.275391C8.8594 0.275391 8.45697 0.275391 7.22911 0.346891C6.26889 0.366981 5.31899 0.551599 4.41983 0.892891C3.65105 1.19383 2.95286 1.65371 2.36993 2.24311C1.787 2.83252 1.33217 3.53847 1.03454 4.31579C0.696182 5.22466 0.513986 6.18533 0.495828 7.15629C0.440542 8.40819 0.423828 8.80469 0.423828 11.9793C0.423828 15.1539 0.423828 15.5595 0.495828 16.8023C0.515114 17.7747 0.696399 18.7341 1.03454 19.6454C1.33267 20.4225 1.78784 21.1281 2.37096 21.7173C2.95408 22.3065 3.65234 22.7661 4.42111 23.067C5.31781 23.4221 6.26788 23.62 7.2304 23.652C8.46854 23.7079 8.86069 23.7248 12.0004 23.7248C15.1401 23.7248 15.5425 23.7248 16.7704 23.652C17.731 23.6329 18.6814 23.4487 19.581 23.1073C20.3494 22.8058 21.0473 22.3457 21.6302 21.7564C22.2131 21.1671 22.6681 20.4614 22.9663 19.6844C23.3044 18.7744 23.4857 17.815 23.505 16.8413C23.5603 15.5907 23.577 15.1942 23.577 12.0183C23.5744 8.84369 23.5744 8.44069 23.5024 7.19659ZM11.9914 17.9827C8.70769 17.9827 6.04754 15.293 6.04754 11.9728C6.04754 8.65259 8.70769 5.96289 11.9914 5.96289C13.5678 5.96289 15.0797 6.59608 16.1943 7.72315C17.309 8.85023 17.9353 10.3789 17.9353 11.9728C17.9353 13.5667 17.309 15.0954 16.1943 16.2224C15.0797 17.3495 13.5678 17.9827 11.9914 17.9827ZM18.1718 7.14199C17.9898 7.14216 17.8095 7.10603 17.6412 7.03566C17.473 6.9653 17.3201 6.86208 17.1914 6.73191C17.0627 6.60175 16.9606 6.44719 16.891 6.27709C16.8214 6.10698 16.7857 5.92467 16.7858 5.74059C16.7858 5.55664 16.8217 5.37449 16.8913 5.20455C16.9609 5.0346 17.063 4.88018 17.1916 4.75011C17.3202 4.62004 17.473 4.51686 17.641 4.44647C17.8091 4.37607 17.9893 4.33984 18.1712 4.33984C18.3531 4.33984 18.5333 4.37607 18.7013 4.44647C18.8694 4.51686 19.0221 4.62004 19.1508 4.75011C19.2794 4.88018 19.3815 5.0346 19.4511 5.20455C19.5207 5.37449 19.5565 5.55664 19.5565 5.74059C19.5565 6.51539 18.9368 7.14199 18.1718 7.14199Z" fill="#131313"/>
<path d="M11.9919 15.8773C14.1242 15.8773 15.8529 14.1295 15.8529 11.9734C15.8529 9.81737 14.1242 8.06953 11.9919 8.06953C9.85949 8.06953 8.13086 9.81737 8.13086 11.9734C8.13086 14.1295 9.85949 15.8773 11.9919 15.8773Z" fill="#131313"/>
</g>
<defs>
<clipPath id="clip0_640_735">
<rect width="24" height="24" fill="white"/>
</clipPath>
</defs>
</svg>
