<svg width="72" height="60" viewBox="0 0 72 60" fill="none" xmlns="http://www.w3.org/2000/svg">
<g clip-path="url(#clip0_640_743)">
<path d="M0.135283 59.2833C0.291266 59.2833 0.425881 59.228 0.536992 59.1175C0.648103 59.0048 0.707932 58.8698 0.716479 58.7135V53.7093C0.707932 53.5541 0.648103 53.4223 0.536992 53.3139C0.425881 53.2065 0.291266 53.1523 0.135283 53.1523H0.015625V53.0588H2.0028V53.1523H1.88315C1.72609 53.1523 1.59255 53.2065 1.48144 53.3139C1.37033 53.4223 1.3105 53.5541 1.30195 53.7093V58.7135C1.30195 58.8698 1.35857 59.0048 1.47289 59.1175C1.58934 59.228 1.72609 59.2833 1.88315 59.2833H2.0028V59.3726H0.015625V59.2833H0.135283Z" fill="#131313"/>
<path d="M9.12702 54.0537C8.9924 54.0537 8.87702 54.0984 8.78087 54.1855C8.68364 54.2706 8.63236 54.3768 8.62702 54.5044V58.3437C8.62702 58.6923 8.64839 59.024 8.69112 59.3386L8.70822 59.5001H8.62702L3.91334 55.0529V58.8114C3.91334 58.9453 3.96142 59.0569 4.05864 59.1473C4.1548 59.2387 4.27339 59.2833 4.41334 59.2833H4.56719V59.3726H2.85352V59.2833H3.00736C3.14625 59.2833 3.26484 59.2387 3.36206 59.1473C3.45822 59.0569 3.50736 58.9453 3.50736 58.8114V54.9551C3.50736 54.5873 3.48599 54.2599 3.44326 53.9729L3.42617 53.8284L3.52446 53.8369L8.22958 58.2459V54.5044C8.21783 54.3768 8.16334 54.2706 8.06719 54.1855C7.96997 54.0984 7.85458 54.0537 7.72104 54.0537H7.56719V53.9602H9.28087V54.0537H9.12702Z" fill="#131313"/>
<path d="M16.1895 54.0537C16.0549 54.0537 15.9395 54.0984 15.8434 54.1855C15.7461 54.2706 15.6949 54.3768 15.6895 54.5044V58.3437C15.6895 58.6923 15.7109 59.024 15.7536 59.3386L15.7707 59.5001H15.6895L10.9758 55.0529V58.8114C10.9758 58.9453 11.0239 59.0569 11.1211 59.1473C11.2173 59.2387 11.3359 59.2833 11.4758 59.2833H11.6297V59.3726H9.91602V59.2833H10.0699C10.2088 59.2833 10.3273 59.2387 10.4246 59.1473C10.5207 59.0569 10.5699 58.9453 10.5699 58.8114V54.9551C10.5699 54.5873 10.5485 54.2599 10.5058 53.9729L10.4887 53.8284L10.587 53.8369L15.2921 58.2459V54.5044C15.2803 54.3768 15.2258 54.2706 15.1297 54.1855C15.0325 54.0984 14.9171 54.0537 14.7835 54.0537H14.6297V53.9602H16.3434V54.0537H16.1895Z" fill="#131313"/>
<path d="M22.6451 59.2833H22.7178V59.3726H20.8588V59.2833H20.9315C21.0447 59.2833 21.1323 59.245 21.1922 59.1685C21.2541 59.0898 21.2862 59.0154 21.2862 58.9474C21.2862 58.8773 21.2734 58.8092 21.2477 58.7433L20.752 57.5401H18.4571L17.9571 58.7136C17.9283 58.7933 17.9144 58.8688 17.9144 58.9389C17.9144 59.0069 17.9443 59.0824 18.0041 59.1642C18.064 59.244 18.1548 59.2833 18.2776 59.2833H18.3503V59.3726H16.6152V59.2833H16.6879C16.8161 59.2833 16.9443 59.2397 17.0725 59.1515C17.2028 59.0643 17.3118 58.9336 17.3973 58.7603C18.7189 55.9457 19.4069 54.4725 19.4614 54.3386C19.564 54.0867 19.6195 53.9198 19.6281 53.8369H19.7093L21.9486 58.7603C22.1216 59.109 22.3546 59.2833 22.6451 59.2833ZM18.5768 57.2722H20.6409L19.6281 54.802L18.5768 57.2722Z" fill="#131313"/>
<path d="M27.831 59.2833C27.9763 59.2833 28.0981 59.2365 28.1985 59.143C28.2978 59.0495 28.3502 58.9368 28.3566 58.8029V54.5384C28.3502 54.4055 28.2946 54.2918 28.1899 54.1983C28.0842 54.1026 27.9592 54.0537 27.8139 54.0537H27.707V53.9602H29.5831V54.0537H29.472C29.3267 54.0537 29.2006 54.1026 29.0959 54.1983C28.9902 54.2918 28.9378 54.4055 28.9378 54.5384V59.092H30.3523C30.6312 59.092 30.8662 59.0441 31.0575 58.9474C31.2508 58.8518 31.3972 58.738 31.4976 58.6073C31.597 58.4744 31.6953 58.3001 31.7925 58.0843H31.8822L31.3865 59.3726H27.707V59.2833H27.831Z" fill="#131313"/>
<path d="M37.9127 54.0537H37.8059C37.6403 54.0537 37.4832 54.0984 37.3358 54.1855C37.1873 54.2705 37.0644 54.38 36.9682 54.5129L35.2289 57.1362V58.7944C35.2289 58.9283 35.2802 59.0431 35.3828 59.1387C35.4853 59.2355 35.6093 59.2833 35.7546 59.2833H35.8657V59.3726H34.0067V59.2833H34.1135C34.2588 59.2833 34.3828 59.2355 34.4853 59.1387C34.5879 59.0431 34.6392 58.9283 34.6392 58.7944V57.1277L32.964 54.5044C32.7588 54.2046 32.4811 54.0537 32.1306 54.0537H32.0195V53.9602H34.1221V54.0537H34.0153C33.9009 54.0537 33.8187 54.0909 33.7674 54.1643C33.7161 54.2355 33.6905 54.2961 33.6905 54.3471C33.6905 54.3981 33.6958 54.4438 33.7076 54.4831L35.0324 56.8216L36.4341 54.4959C36.4533 54.4481 36.464 54.3981 36.464 54.3471C36.464 54.2961 36.4383 54.2355 36.3871 54.1643C36.3358 54.0909 36.2482 54.0537 36.1264 54.0537H36.0195V53.9602H37.9127V54.0537Z" fill="#131313"/>
<path d="M40.7879 54.2238V58.8029C40.7933 58.9899 40.8841 59.1292 41.0614 59.2195C41.1383 59.262 41.2249 59.2833 41.3221 59.2833H41.4204V59.3726H39.5571V59.2833H39.664C39.8093 59.2833 39.9332 59.2355 40.0358 59.1387C40.1383 59.0431 40.1918 58.9283 40.1982 58.7944V54.2238H38.5571C38.4172 54.2238 38.3061 54.2695 38.2238 54.3598C38.1437 54.4512 38.1041 54.5586 38.1041 54.683V54.8275H38.0059V53.8071C38.1255 53.856 38.2943 53.8921 38.5144 53.9177C38.7366 53.941 38.9012 53.9517 39.0101 53.9517H41.9674C42.4001 53.9517 42.7377 53.9038 42.9802 53.8071V54.8275H42.8819V54.683C42.8819 54.5586 42.8392 54.4512 42.7537 54.3598C42.6704 54.2695 42.5625 54.2238 42.4289 54.2238H40.7879Z" fill="#131313"/>
<path d="M43.6331 59.075C43.616 59.0048 43.6074 58.8581 43.6074 58.637C43.6074 58.4138 43.6459 58.1864 43.7228 57.9568H43.8339C43.8275 58.011 43.8254 58.0652 43.8254 58.1183C43.8254 58.4446 43.9322 58.7114 44.1459 58.9176C44.3596 59.1249 44.6566 59.228 45.039 59.228C45.4375 59.228 45.7484 59.1377 45.9707 58.9559C46.195 58.772 46.3083 58.5339 46.3083 58.2416C46.3083 57.9504 46.1982 57.708 45.9792 57.5146L44.1673 56.1243C43.8767 55.8777 43.7314 55.5482 43.7314 55.1336C43.7314 54.8987 43.7965 54.6819 43.9279 54.4831C44.0583 54.2854 44.2399 54.1281 44.4707 54.0112C44.7036 53.8953 44.9771 53.8369 45.2912 53.8369C45.6042 53.8369 45.882 53.8645 46.1245 53.9177H46.4237L46.445 54.8998H46.3425C46.3425 54.6479 46.2538 54.4523 46.0775 54.3131C45.9034 54.1749 45.6523 54.1047 45.3254 54.1047C45.0006 54.1047 44.7324 54.1887 44.522 54.3556C44.3104 54.5203 44.2057 54.734 44.2057 54.9976C44.2057 55.2591 44.3222 55.4844 44.5561 55.6736L46.3895 57.0809C46.6651 57.3105 46.804 57.6294 46.804 58.0375C46.804 58.4457 46.648 58.7922 46.3382 59.075C46.0273 59.3588 45.648 59.5001 45.2014 59.5001C44.9044 59.5001 44.6085 59.4629 44.3125 59.3896C44.0155 59.3194 43.789 59.2142 43.6331 59.075Z" fill="#131313"/>
<path d="M47.9208 59.2833C48.0661 59.2833 48.1879 59.2365 48.2883 59.143C48.3877 59.0495 48.44 58.9368 48.4464 58.8029V54.5214C48.4464 54.3885 48.3952 54.278 48.2926 54.1898C48.19 54.0994 48.0661 54.0537 47.9208 54.0537H47.7969V53.9602H50.4422C50.69 53.9602 50.9059 53.9432 51.0917 53.9092C51.2798 53.873 51.4016 53.8411 51.4593 53.8156V54.8445L51.3567 54.836V54.7C51.3567 54.5756 51.314 54.4682 51.2285 54.3768C51.1452 54.2865 51.0373 54.2408 50.9037 54.2408H49.0191V56.5324H50.5704C50.69 56.5324 50.7809 56.4974 50.8439 56.4262C50.9091 56.3528 50.9422 56.2625 50.9422 56.154V56.035H51.0405V57.2978H50.9422V57.183C50.9422 57.0129 50.8781 56.8981 50.7499 56.8386C50.7007 56.8216 50.6494 56.8109 50.596 56.8046H49.0191V59.092H50.4422C50.721 59.092 50.955 59.0441 51.143 58.9474C51.3332 58.8518 51.4785 58.738 51.5789 58.6073C51.6783 58.4744 51.7798 58.3001 51.8823 58.0843H51.9721L51.4764 59.3726H47.7969V59.2833H47.9208Z" fill="#131313"/>
<path d="M58.836 54.0537C58.7014 54.0537 58.586 54.0984 58.4899 54.1855C58.3926 54.2706 58.3413 54.3768 58.336 54.5044V58.3437C58.336 58.6923 58.3574 59.024 58.4001 59.3386L58.4172 59.5001H58.336L53.6223 55.0529V58.8114C53.6223 58.9453 53.6704 59.0569 53.7676 59.1473C53.8638 59.2387 53.9824 59.2833 54.1223 59.2833H54.2762V59.3726H52.5625V59.2833H52.7163C52.8552 59.2833 52.9738 59.2387 53.071 59.1473C53.1672 59.0569 53.2163 58.9453 53.2163 58.8114V54.9551C53.2163 54.5873 53.195 54.2599 53.1522 53.9729L53.1351 53.8284L53.2334 53.8369L57.9386 58.2459V54.5044C57.9268 54.3768 57.8723 54.2706 57.7762 54.1855C57.679 54.0984 57.5636 54.0537 57.43 54.0537H57.2762V53.9602H58.9899V54.0537H58.836Z" fill="#131313"/>
<path d="M65.0094 59.3726H64.6761C64.0832 59.3726 63.6387 59.2015 63.3428 58.8581L61.3471 56.6855L63.2958 54.4024C63.3641 54.3205 63.3748 54.2429 63.33 54.1685C63.284 54.092 63.2071 54.0537 63.0992 54.0537H63.0137V53.9602H64.8641V54.0537H64.83C64.4592 54.0537 64.1654 54.1621 63.9496 54.3768L61.9753 56.4772L64.2231 58.9134C64.331 59.0441 64.4421 59.1377 64.5565 59.194C64.6697 59.2482 64.8214 59.278 65.0094 59.2833V59.3726ZM61.565 59.2833H61.6633V59.3726H59.8086V59.2833H59.9154C60.0607 59.2833 60.1847 59.2355 60.2872 59.1387C60.3898 59.0431 60.4432 58.9283 60.4496 58.7944V54.5384C60.4432 54.4055 60.3898 54.2918 60.2872 54.1983C60.1847 54.1026 60.0607 54.0537 59.9154 54.0537H59.8086V53.9602H61.6633V54.0537H61.5565C61.362 54.0537 61.2114 54.1324 61.1035 54.2876C61.0543 54.3588 61.0308 54.4396 61.0308 54.5299V58.8029C61.0308 58.9368 61.0832 59.0495 61.1889 59.143C61.2936 59.2365 61.4197 59.2833 61.565 59.2833Z" fill="#131313"/>
<path d="M66.9413 54.194C67.4082 53.9559 67.921 53.8369 68.4797 53.8369C69.0374 53.8369 69.5492 53.9559 70.0139 54.194C70.4808 54.43 70.8515 54.7637 71.125 55.1974C71.4007 55.6311 71.5396 56.1222 71.5396 56.6685C71.5396 57.2159 71.4007 57.7059 71.125 58.1396C70.8515 58.5711 70.4808 58.9049 70.0139 59.143C69.5492 59.3811 69.0716 59.5001 68.5823 59.5001C68.0919 59.5001 67.6592 59.43 67.2832 59.2918C66.9092 59.1536 66.5845 58.9602 66.3088 58.7136C66.0353 58.467 65.8184 58.1672 65.6592 57.8122C65.499 57.4583 65.4199 57.0426 65.4199 56.5665C65.4199 56.0881 65.5567 55.6311 65.8302 55.1974C66.1058 54.7637 66.4765 54.43 66.9413 54.194ZM66.7746 58.5137C67.2298 58.9899 67.796 59.228 68.4712 59.228C69.1486 59.228 69.7169 58.9899 70.1763 58.5137C70.6379 58.0354 70.8686 57.42 70.8686 56.6685C70.8686 55.9181 70.6379 55.3026 70.1763 54.8233C69.7169 54.3449 69.1486 54.1047 68.4712 54.1047C67.796 54.1047 67.2298 54.3449 66.7746 54.8233C66.3184 55.3026 66.0909 55.9181 66.0909 56.6685C66.0909 57.42 66.3184 58.0354 66.7746 58.5137Z" fill="#131313"/>
<path d="M33.8378 35.3274C33.8378 36.2691 33.936 36.9515 34.1326 37.3767C34.3292 37.7997 34.6882 38.0846 35.2096 38.2313C35.7331 38.3758 36.5835 38.4481 37.7608 38.4481H43.107C44.9702 38.4481 46.4574 37.8805 47.5685 36.7432C48.6818 35.6037 49.419 34.0253 49.7779 32.0068C49.7779 31.9111 49.8677 31.8707 50.0472 31.8877C50.2267 31.9026 50.3164 31.9589 50.3164 32.0578C50.0226 34.7566 49.8762 36.9845 49.8762 38.7415C49.8762 39.003 49.826 39.19 49.7267 39.3027C49.6294 39.4164 49.4339 39.4728 49.1412 39.4728H26.4831C26.4168 39.4728 26.3848 39.375 26.3848 39.1794C26.3848 38.9838 26.4168 38.886 26.4831 38.886C27.7245 38.886 28.6305 38.8053 29.201 38.6437C29.7737 38.4821 30.1583 38.1664 30.3549 37.6956C30.5514 37.2226 30.6497 36.4966 30.6497 35.5187V12.9294C30.6497 11.9547 30.5514 11.2393 30.3549 10.7823C30.1583 10.3263 29.7737 10.0085 29.201 9.8299C28.6305 9.65133 27.7245 9.56204 26.4831 9.56204C26.4168 9.56204 26.3848 9.46638 26.3848 9.27293C26.3848 9.07735 26.4168 8.97956 26.4831 8.97956L28.8848 9.02633C30.2576 9.09223 31.3687 9.12412 32.2181 9.12412C33.1348 9.12412 34.2801 9.09223 35.654 9.02633L38.0087 8.97956C38.1049 8.97956 38.154 9.07735 38.154 9.27293C38.154 9.46638 38.1049 9.56204 38.0087 9.56204C36.7972 9.56204 35.9061 9.65133 35.3335 9.8299C34.7608 10.0085 34.3677 10.3348 34.154 10.8078C33.9425 11.2787 33.8378 12.0025 33.8378 12.9804V35.3274Z" fill="#131313"/>
<mask id="mask0_640_743" style="mask-type:luminance" maskUnits="userSpaceOnUse" x="65" y="53" width="7" height="7">
<path d="M65.3418 53.361H71.986V59.9713H65.3418V53.361Z" fill="white"/>
</mask>
<g mask="url(#mask0_640_743)">
<mask id="mask1_640_743" style="mask-type:luminance" maskUnits="userSpaceOnUse" x="65" y="53" width="7" height="7">
<path d="M68.6644 53.361C66.83 53.361 65.3418 54.8416 65.3418 56.6667C65.3418 58.4917 66.83 59.9713 68.6644 59.9713C70.4988 59.9713 71.986 58.4917 71.986 56.6667C71.986 54.8416 70.4988 53.361 68.6644 53.361Z" fill="white"/>
</mask>
<g mask="url(#mask1_640_743)">
<path d="M65.3418 53.361H71.986V59.9713H65.3418V53.361Z" fill="#D1AE4B"/>
</g>
</g>
<mask id="mask2_640_743" style="mask-type:luminance" maskUnits="userSpaceOnUse" x="12" y="41" width="17" height="3">
<path d="M12.8867 41.4286H28.6816V43.6054H12.8867V41.4286Z" fill="white"/>
</mask>
<g mask="url(#mask2_640_743)">
<path d="M12.8867 43.4779V41.5306H28.688V43.4779H12.8867Z" fill="#131313"/>
</g>
<path d="M14.5215 45.9811V44.0338H27.0503V45.9811H14.5215Z" fill="#131313"/>
<path d="M16.1387 48.496V46.5487H25.4357V48.496H16.1387Z" fill="#131313"/>
<mask id="mask3_640_743" style="mask-type:luminance" maskUnits="userSpaceOnUse" x="19" y="48" width="3" height="3">
<path d="M19.6914 48.7755H21.8794V50.2902H19.6914V48.7755Z" fill="white"/>
</mask>
<g mask="url(#mask3_640_743)">
<path d="M19.9277 50.2764V49.004H21.6435V50.2764H19.9277Z" fill="#131313"/>
</g>
<path d="M19.9277 40.9737V18.7989H21.6435V40.9737H19.9277Z" fill="#131313"/>
<mask id="mask4_640_743" style="mask-type:luminance" maskUnits="userSpaceOnUse" x="12" y="16" width="17" height="3">
<path d="M12.8867 16.1224H28.6816V18.2993H12.8867V16.1224Z" fill="white"/>
</mask>
<g mask="url(#mask4_640_743)">
<path d="M12.8867 16.283V18.2302H28.688V16.283H12.8867Z" fill="#131313"/>
</g>
<path d="M14.5215 13.7798V15.727H27.0503V13.7798H14.5215Z" fill="#131313"/>
<path d="M16.1387 11.2766V13.2239H25.4357V11.2766H16.1387Z" fill="#131313"/>
<mask id="mask5_640_743" style="mask-type:luminance" maskUnits="userSpaceOnUse" x="19" y="9" width="3" height="2">
<path d="M19.6914 9.47385H21.8794V10.9524H19.6914V9.47385Z" fill="white"/>
</mask>
<g mask="url(#mask5_640_743)">
<path d="M19.9277 9.48448V10.7568H21.6435V9.48448H19.9277Z" fill="#131313"/>
</g>
<mask id="mask6_640_743" style="mask-type:luminance" maskUnits="userSpaceOnUse" x="29" y="0" width="7" height="6">
<path d="M29.6777 0.157314H35.1414V5.59418H29.6777V0.157314Z" fill="white"/>
</mask>
<g mask="url(#mask6_640_743)">
<mask id="mask7_640_743" style="mask-type:luminance" maskUnits="userSpaceOnUse" x="29" y="0" width="7" height="6">
<path d="M32.4096 0.157314C30.901 0.157314 29.6777 1.37436 29.6777 2.87521C29.6777 4.37713 30.901 5.59418 32.4096 5.59418C33.9181 5.59418 35.1414 4.37713 35.1414 2.87521C35.1414 1.37436 33.9181 0.157314 32.4096 0.157314Z" fill="white"/>
</mask>
<g mask="url(#mask7_640_743)">
<path d="M29.6777 0.157314H35.1414V5.59418H29.6777V0.157314Z" fill="#D1AE4B"/>
</g>
</g>
<path d="M24.2214 40.4697H24.6273V40.7843H17.7427V40.4697H18.153C18.6968 40.4697 19.1679 40.2773 19.5675 39.8914C19.966 39.5067 20.1658 39.0432 20.1658 38.5011V19.7341L16.7983 19.9212C14.6808 20.0466 13.6231 20.8077 13.6231 22.2044C13.6231 22.7688 13.8068 23.2492 14.1743 23.6457C14.5419 24.04 15.1231 24.2579 15.9179 24.3005V24.4875C15.6241 24.5502 15.3303 24.5811 15.0376 24.5811C14.1167 24.5811 13.4265 24.2175 12.9649 23.4884C12.6914 23.0696 12.5547 22.6104 12.5547 22.1108C12.5547 20.34 13.9073 19.3079 16.6102 19.0156C16.6327 19.0156 17.6754 18.9476 19.7384 18.8115C21.8036 18.6755 23.4329 18.4926 24.6273 18.263L24.6914 18.5777C23.7908 18.7222 23.1508 19.0241 22.7726 19.4833C22.3966 19.9425 22.2085 20.5792 22.2085 21.3923V38.5011C22.2278 39.0432 22.4318 39.5067 22.8196 39.8914C23.2064 40.2773 23.6743 40.4697 24.2214 40.4697Z" fill="#D1AE4B"/>
</g>
<defs>
<clipPath id="clip0_640_743">
<rect width="72" height="60" fill="white"/>
</clipPath>
</defs>
</svg>
