<svg width="60" height="60" viewBox="0 0 60 60" fill="none" xmlns="http://www.w3.org/2000/svg">
<path d="M36.925 7.10266C36.9249 10.7426 33.9626 13.705 30.3212 13.705C26.6811 13.705 23.7188 10.7426 23.7188 7.1025C23.7188 3.46239 26.6811 0.5 30.3212 0.5C33.9601 0.5 36.9237 3.46237 36.925 7.1025V7.10266ZM35.42 7.10125C35.42 4.29028 33.1351 2.0025 30.3212 2.0025C27.5088 2.0025 25.2225 4.2902 25.2225 7.10125C25.2225 9.9123 27.5088 12.2 30.3212 12.2C33.1363 12.2 35.42 9.91346 35.42 7.10125Z" fill="#131313" stroke="#131313"/>
<path d="M35.4601 37.5824V37.4262V29.135V27.9279L36.3136 28.7814L38.5674 31.0352L38.572 31.0397L38.5719 31.0398C38.626 31.0953 38.689 31.1405 38.7587 31.1746L38.7625 31.1765L38.7625 31.1765L42.2512 32.9215C42.2512 32.9215 42.2512 32.9215 42.2512 32.9215C42.6797 33.1358 43.1457 33.245 43.6126 33.245C44.0094 33.245 44.4019 33.1687 44.7707 33.013L44.7746 33.0114C45.5914 32.6748 46.2161 32.0018 46.4969 31.1647C46.9677 29.7366 46.3139 28.1515 44.9728 27.4784C44.9726 27.4783 44.9724 27.4782 44.9722 27.4781L41.1941 25.591L41.0753 25.5316L41.0015 25.421L35.3608 16.9593C35.3564 16.9555 35.3515 16.951 35.3462 16.9462C35.3277 16.9291 35.3018 16.9037 35.2749 16.8704L35.6633 16.5566L35.2749 16.8704C35.2473 16.8362 35.2163 16.8051 35.1737 16.7696C35.1284 16.7332 35.0902 16.7077 35.0519 16.6872L35.0476 16.6849L35.0476 16.6848C35.0189 16.6692 34.9848 16.6549 34.9342 16.6394L34.9305 16.6383C34.8782 16.6219 34.8281 16.6116 34.7748 16.6063L35.4601 37.5824ZM35.4601 37.5824L35.549 37.7108M35.4601 37.5824L35.549 37.7108M35.549 37.7108L47.4601 54.9169C47.4602 54.917 47.4602 54.917 47.4602 54.917C48.2654 56.0811 48.1229 57.6472 47.1244 58.6435L47.1223 58.6456C46.5751 59.1981 45.8436 59.5 45.0601 59.5C44.2134 59.5 43.4106 59.1339 42.8585 58.4945L42.8579 58.4937L32.4592 46.495L32.0534 46.0268L31.6814 46.5223L27.9952 51.4336L27.9936 51.4358C27.8536 51.6243 27.6297 51.7375 27.3951 51.7375H14.9626C13.3393 51.7375 12.0176 50.4144 12.0176 48.7887C12.0176 47.1638 13.3397 45.8437 14.9626 45.8437H22.1063H22.4667L22.5807 45.5019L25.1569 37.7756L25.1826 37.6986V37.6175V26.68V25.8709L24.459 26.2327L20.7465 28.089L20.6163 28.1541L20.5414 28.2789L17.1489 33.9301L17.1485 33.9308C16.5201 34.9815 15.0488 35.4117 13.9532 34.8619C12.7423 34.2538 12.2515 32.7773 12.8557 31.5729L12.856 31.5723L16.4848 24.3148L16.4855 24.3134M35.549 37.7108L16.4855 24.3134M16.4855 24.3134C16.5315 24.2207 16.5951 24.1402 16.676 24.0722C16.6762 24.072 16.6764 24.0718 16.6766 24.0716L25.4514 16.7591C25.5864 16.6466 25.7569 16.585 25.9326 16.585H34.6598L16.4855 24.3134ZM46.0636 57.5823L46.0624 57.5835C45.7951 57.8488 45.4398 57.9962 45.0601 57.9962C44.8221 57.9962 44.3617 57.9322 43.9921 57.5087L43.991 57.5074L26.8072 37.6787L26.6851 37.5377L26.6851 37.3513L26.6838 24.6513V24.6512C26.6838 24.3905 26.5482 24.1485 26.3273 24.0116C26.1054 23.8748 25.8282 23.8624 25.5963 23.9784C25.5962 23.9784 25.5962 23.9784 25.5962 23.9784L19.7463 26.9046L19.7451 26.9052C19.6189 26.9679 19.512 27.0672 19.4374 27.1912C19.4374 27.1913 19.4374 27.1913 19.4373 27.1913L15.8581 33.1538C15.8581 33.1539 15.858 33.154 15.8579 33.1542C15.7119 33.3984 15.4919 33.5472 15.2501 33.5986C15.0225 33.6469 14.8021 33.6043 14.6306 33.5217L14.626 33.5195L14.626 33.5194C14.1559 33.2871 13.9673 32.7123 14.2004 32.2475L46.0636 57.5823ZM46.0636 57.5823C46.5476 57.0983 46.615 56.3385 46.2291 55.774L46.2274 55.7715L34.0927 38.2488C34.0925 38.2485 34.0923 38.2482 34.0921 38.2479C34.0042 38.1192 33.9576 37.9688 33.9576 37.8187V18.5937V18.0937H33.4576H26.3863H26.2053L26.0662 18.2096L17.84 25.0646L17.7597 25.1315L17.7129 25.225L14.2009 32.2466L46.0636 57.5823ZM44.3031 28.825L44.3009 28.8239L40.2284 26.7908C40.2279 26.7905 40.2273 26.7902 40.2268 26.7899C40.1073 26.7286 40.0059 26.639 39.9387 26.5371L39.9373 26.535L36.376 21.1962L35.4601 19.8231V21.4737V25.5975V25.8046L35.6066 25.9511L39.4866 29.8298L39.544 29.8872L39.6166 29.9235L42.924 31.5759C43.4577 31.8428 43.9494 31.732 44.2073 31.6159C44.447 31.5152 44.8768 31.2592 45.0677 30.6882C45.313 29.9634 44.9771 29.1657 44.3031 28.825ZM26.7701 50.2325H27.0201L27.1701 50.0325L30.8038 45.1875L31.0458 44.8648L30.7817 44.56L26.8041 39.9712L26.2295 39.3082L25.952 40.1406L23.7207 46.8331L23.7207 46.8331C23.6184 47.1402 23.3298 47.3487 23.0076 47.3487H14.9626C14.1664 47.3487 13.5213 47.9938 13.5213 48.79C13.5213 49.5852 14.1656 50.2325 14.9626 50.2325H26.7701Z" fill="#131313" stroke="#131313"/>
</svg>
