<svg width="24" height="24" viewBox="0 0 24 24" fill="none" xmlns="http://www.w3.org/2000/svg">
<path d="M24 12C24 18.6274 18.6274 24 12 24C5.37258 24 0 18.6274 0 12C0 5.37258 5.37258 0 12 0C18.6274 0 24 5.37258 24 12ZM12.4301 8.859C11.2629 9.34445 8.93022 10.3493 5.43194 11.8734C4.86388 12.0993 4.56632 12.3203 4.53923 12.5364C4.49345 12.9015 4.95078 13.0453 5.57354 13.2412C5.65823 13.2678 5.74602 13.2954 5.83602 13.3247C6.44871 13.5238 7.27288 13.7568 7.70137 13.7661C8.08998 13.7745 8.52378 13.6142 9.00272 13.2854C12.2712 11.079 13.9584 9.96388 14.0644 9.93983C14.1391 9.92285 14.2427 9.90152 14.3128 9.96388C14.383 10.0263 14.3761 10.1444 14.3687 10.176C14.3233 10.3692 12.5282 12.0381 11.5992 12.9018C11.3096 13.1711 11.1042 13.362 11.0622 13.4057C10.968 13.5034 10.8722 13.5958 10.7801 13.6847C10.2108 14.2334 9.78397 14.6448 10.8037 15.3168C11.2937 15.6397 11.6858 15.9068 12.077 16.1732C12.5042 16.4641 12.9304 16.7543 13.4817 17.1157C13.6221 17.2078 13.7563 17.3034 13.887 17.3965C14.3841 17.751 14.8308 18.0695 15.3827 18.0186C15.7033 17.9892 16.0345 17.6876 16.2027 16.7884C16.6003 14.6632 17.3817 10.0585 17.5623 8.16102C17.5781 7.99477 17.5582 7.78205 17.5422 7.68863C17.5262 7.59522 17.4928 7.46215 17.3714 7.36366C17.2277 7.24698 17.0057 7.22238 16.9064 7.22414C16.4551 7.23208 15.7626 7.47286 12.4301 8.859Z" fill="#131313"/>
</svg>
